{
	"asset":{
		"generator":"Khronos glTF Blender I/O v5.1.18",
		"version":"2.0"
	},
	"scene":0,
	"scenes":[
		{
			"name":"Scene",
			"nodes":[
				0,
				1,
				2,
				3,
				4,
				5,
				6,
				7
			]
		}
	],
	"nodes":[
		{
			"mesh":0,
			"name":"Cube",
			"translation":[
				0,
				1,
				0
			]
		},
		{
			"mesh":1,
			"name":"Cube.001",
			"scale":[
				0.6926040649414062,
				0.6926040649414062,
				0.6926040649414062
			],
			"translation":[
				0.01832297444343567,
				4.287137508392334,
				0.23576147854328156
			]
		},
		{
			"mesh":2,
			"name":"Circle",
			"rotation":[
				0.3456098735332489,
				0,
				0,
				0.9383782744407654
			],
			"scale":[
				0.49156707525253296,
				0.49156707525253296,
				0.49156707525253296
			],
			"translation":[
				0.01832297444343567,
				4.276140213012695,
				0.46327832341194153
			]
		},
		{
			"mesh":3,
			"name":"Circle.001",
			"rotation":[
				0.3456098735332489,
				0,
				0,
				0.9383782744407654
			],
			"scale":[
				0.24458260834217072,
				0.24458260834217072,
				0.24458260834217072
			],
			"translation":[
				0.014373928308486938,
				4.307554721832275,
				0.47489961981773376
			]
		},
		{
			"mesh":4,
			"name":"Plane",
			"rotation":[
				0.35700279474258423,
				0.11591321229934692,
				0.08259568363428116,
				0.9231962561607361
			],
			"scale":[
				0.14283044636249542,
				0.14283044636249542,
				0.14283044636249542
			],
			"translation":[
				0.2099117636680603,
				4.074976444244385,
				0.7262375354766846
			]
		},
		{
			"mesh":5,
			"name":"Sphere",
			"rotation":[
				0.001613440690562129,
				0.007980087772011757,
				0.1934000700712204,
				0.9810861945152283
			],
			"scale":[
				0.4159606099128723,
				0.4159605801105499,
				0.4159606099128723
			],
			"translation":[
				-0.8369169235229492,
				4.486834526062012,
				-0.5937957167625427
			]
		},
		{
			"mesh":6,
			"name":"Circle.002",
			"rotation":[
				0.7071068286895752,
				0,
				0,
				0.7071068286895752
			],
			"scale":[
				0.008671510964632034,
				0.008671510964632034,
				0.008671510964632034
			],
			"translation":[
				-1.4499695301055908,
				2.8986616134643555,
				0.25796812772750854
			]
		},
		{
			"name":"B\u00e9zierCurve",
			"scale":[
				0.6926040649414062,
				0.6926040649414062,
				0.6926040649414062
			],
			"translation":[
				-0.652255117893219,
				4.165281772613525,
				0.2667275667190552
			]
		}
	],
	"materials":[
		{
			"doubleSided":true,
			"name":"Material",
			"pbrMetallicRoughness":{
				"metallicFactor":0.20000000298023224
			}
		},
		{
			"doubleSided":true,
			"name":"\u9ed2",
			"pbrMetallicRoughness":{
				"baseColorFactor":[
					0.014653140679001808,
					0.014653140679001808,
					0.014653140679001808,
					1
				],
				"metallicFactor":0.0010000000474974513,
				"roughnessFactor":0.20000000298023224
			}
		},
		{
			"doubleSided":true,
			"name":"\u767d",
			"pbrMetallicRoughness":{
				"baseColorFactor":[
					0.800000011920929,
					0.800000011920929,
					0.800000011920929,
					1
				],
				"metallicFactor":0,
				"roughnessFactor":0.20000000298023224
			}
		},
		{
			"doubleSided":true,
			"name":"\u9280",
			"pbrMetallicRoughness":{
				"baseColorFactor":[
					0.27059856057167053,
					0.27059856057167053,
					0.27059856057167053,
					1
				],
				"metallicFactor":0.800000011920929,
				"roughnessFactor":0.10000000149011612
			}
		}
	],
	"meshes":[
		{
			"name":"Cube",
			"primitives":[
				{
					"attributes":{
						"POSITION":0,
						"NORMAL":1,
						"TEXCOORD_0":2
					},
					"indices":3,
					"material":0
				}
			]
		},
		{
			"name":"Cube.001",
			"primitives":[
				{
					"attributes":{
						"POSITION":4,
						"NORMAL":5,
						"TEXCOORD_0":6
					},
					"indices":7,
					"material":1
				}
			]
		},
		{
			"name":"Circle",
			"primitives":[
				{
					"attributes":{
						"POSITION":8,
						"NORMAL":9,
						"TEXCOORD_0":10
					},
					"indices":11,
					"material":2
				}
			]
		},
		{
			"name":"Circle.001",
			"primitives":[
				{
					"attributes":{
						"POSITION":12,
						"NORMAL":13,
						"TEXCOORD_0":14
					},
					"indices":15,
					"material":1
				}
			]
		},
		{
			"name":"Plane",
			"primitives":[
				{
					"attributes":{
						"POSITION":16,
						"NORMAL":17,
						"TEXCOORD_0":18
					},
					"indices":19,
					"material":3
				}
			]
		},
		{
			"name":"Sphere",
			"primitives":[
				{
					"attributes":{
						"POSITION":20,
						"NORMAL":21,
						"TEXCOORD_0":22
					},
					"indices":23,
					"material":1
				}
			]
		},
		{
			"name":"Circle.003",
			"primitives":[
				{
					"attributes":{
						"POSITION":24,
						"NORMAL":25,
						"TEXCOORD_0":26
					},
					"indices":27,
					"material":1
				}
			]
		}
	],
	"accessors":[
		{
			"bufferView":0,
			"componentType":5126,
			"count":24,
			"max":[
				1,
				2.5938220024108887,
				1
			],
			"min":[
				-1,
				-1,
				-1
			],
			"type":"VEC3"
		},
		{
			"bufferView":1,
			"componentType":5126,
			"count":24,
			"type":"VEC3"
		},
		{
			"bufferView":2,
			"componentType":5126,
			"count":24,
			"type":"VEC2"
		},
		{
			"bufferView":3,
			"componentType":5123,
			"count":36,
			"type":"SCALAR"
		},
		{
			"bufferView":4,
			"componentType":5126,
			"count":7068,
			"max":[
				0.9991320371627808,
				0.73146653175354,
				0.9958411455154419
			],
			"min":[
				-0.9991320371627808,
				-1.0000001192092896,
				-1.7794166803359985
			],
			"type":"VEC3"
		},
		{
			"bufferView":5,
			"componentType":5126,
			"count":7068,
			"type":"VEC3"
		},
		{
			"bufferView":6,
			"componentType":5126,
			"count":7068,
			"type":"VEC2"
		},
		{
			"bufferView":7,
			"componentType":5123,
			"count":36672,
			"type":"SCALAR"
		},
		{
			"bufferView":8,
			"componentType":5126,
			"count":1026,
			"max":[
				1,
				1.862645149230957e-08,
				1
			],
			"min":[
				-1,
				-0.10000000149011612,
				-1
			],
			"type":"VEC3"
		},
		{
			"bufferView":9,
			"componentType":5126,
			"count":1026,
			"type":"VEC3"
		},
		{
			"bufferView":10,
			"componentType":5126,
			"count":1026,
			"type":"VEC2"
		},
		{
			"bufferView":11,
			"componentType":5123,
			"count":6597,
			"type":"SCALAR"
		},
		{
			"bufferView":12,
			"componentType":5126,
			"count":32,
			"max":[
				1,
				0,
				1
			],
			"min":[
				-1,
				0,
				-1
			],
			"type":"VEC3"
		},
		{
			"bufferView":13,
			"componentType":5126,
			"count":32,
			"type":"VEC3"
		},
		{
			"bufferView":14,
			"componentType":5126,
			"count":32,
			"type":"VEC2"
		},
		{
			"bufferView":15,
			"componentType":5123,
			"count":90,
			"type":"SCALAR"
		},
		{
			"bufferView":16,
			"componentType":5126,
			"count":13,
			"max":[
				0.21474075317382812,
				0,
				1
			],
			"min":[
				-1.054193377494812,
				0,
				-1
			],
			"type":"VEC3"
		},
		{
			"bufferView":17,
			"componentType":5126,
			"count":13,
			"type":"VEC3"
		},
		{
			"bufferView":18,
			"componentType":5126,
			"count":13,
			"type":"VEC2"
		},
		{
			"bufferView":19,
			"componentType":5123,
			"count":36,
			"type":"SCALAR"
		},
		{
			"bufferView":20,
			"componentType":5126,
			"count":260556,
			"max":[
				4.776193618774414,
				0.9975767135620117,
				1.026340126991272
			],
			"min":[
				-0.9872305393218994,
				-2.4099037647247314,
				-0.9872310161590576
			],
			"type":"VEC3"
		},
		{
			"bufferView":21,
			"componentType":5126,
			"count":260556,
			"type":"VEC3"
		},
		{
			"bufferView":22,
			"componentType":5126,
			"count":260556,
			"type":"VEC2"
		},
		{
			"bufferView":23,
			"componentType":5125,
			"count":390912,
			"type":"SCALAR"
		},
		{
			"bufferView":24,
			"componentType":5126,
			"count":31168,
			"max":[
				93.92786407470703,
				-11.986148834228516,
				-81.7057876586914
			],
			"min":[
				-25.97519302368164,
				-114.62198638916016,
				-166.94252014160156
			],
			"type":"VEC3"
		},
		{
			"bufferView":25,
			"componentType":5126,
			"count":31168,
			"type":"VEC3"
		},
		{
			"bufferView":26,
			"componentType":5126,
			"count":31168,
			"type":"VEC2"
		},
		{
			"bufferView":27,
			"componentType":5123,
			"count":186816,
			"type":"SCALAR"
		}
	],
	"bufferViews":[
		{
			"buffer":0,
			"byteLength":288,
			"byteOffset":0,
			"target":34962
		},
		{
			"buffer":0,
			"byteLength":288,
			"byteOffset":288,
			"target":34962
		},
		{
			"buffer":0,
			"byteLength":192,
			"byteOffset":576,
			"target":34962
		},
		{
			"buffer":0,
			"byteLength":72,
			"byteOffset":768,
			"target":34963
		},
		{
			"buffer":0,
			"byteLength":84816,
			"byteOffset":840,
			"target":34962
		},
		{
			"buffer":0,
			"byteLength":84816,
			"byteOffset":85656,
			"target":34962
		},
		{
			"buffer":0,
			"byteLength":56544,
			"byteOffset":170472,
			"target":34962
		},
		{
			"buffer":0,
			"byteLength":73344,
			"byteOffset":227016,
			"target":34963
		},
		{
			"buffer":0,
			"byteLength":12312,
			"byteOffset":300360,
			"target":34962
		},
		{
			"buffer":0,
			"byteLength":12312,
			"byteOffset":312672,
			"target":34962
		},
		{
			"buffer":0,
			"byteLength":8208,
			"byteOffset":324984,
			"target":34962
		},
		{
			"buffer":0,
			"byteLength":13194,
			"byteOffset":333192,
			"target":34963
		},
		{
			"buffer":0,
			"byteLength":384,
			"byteOffset":346388,
			"target":34962
		},
		{
			"buffer":0,
			"byteLength":384,
			"byteOffset":346772,
			"target":34962
		},
		{
			"buffer":0,
			"byteLength":256,
			"byteOffset":347156,
			"target":34962
		},
		{
			"buffer":0,
			"byteLength":180,
			"byteOffset":347412,
			"target":34963
		},
		{
			"buffer":0,
			"byteLength":156,
			"byteOffset":347592,
			"target":34962
		},
		{
			"buffer":0,
			"byteLength":156,
			"byteOffset":347748,
			"target":34962
		},
		{
			"buffer":0,
			"byteLength":104,
			"byteOffset":347904,
			"target":34962
		},
		{
			"buffer":0,
			"byteLength":72,
			"byteOffset":348008,
			"target":34963
		},
		{
			"buffer":0,
			"byteLength":3126672,
			"byteOffset":348080,
			"target":34962
		},
		{
			"buffer":0,
			"byteLength":3126672,
			"byteOffset":3474752,
			"target":34962
		},
		{
			"buffer":0,
			"byteLength":2084448,
			"byteOffset":6601424,
			"target":34962
		},
		{
			"buffer":0,
			"byteLength":1563648,
			"byteOffset":8685872,
			"target":34963
		},
		{
			"buffer":0,
			"byteLength":374016,
			"byteOffset":10249520,
			"target":34962
		},
		{
			"buffer":0,
			"byteLength":374016,
			"byteOffset":10623536,
			"target":34962
		},
		{
			"buffer":0,
			"byteLength":249344,
			"byteOffset":10997552,
			"target":34962
		},
		{
			"buffer":0,
			"byteLength":373632,
			"byteOffset":11246896,
			"target":34963
		}
	],
	"buffers":[
		{
			"byteLength":11620528,
			"uri":"three%E7%94%A8.bin"
		}
	]
}
